# xmcd CD database file
#
# Track frame offsets:
#	180
#	24881
#	47326
#	71396
#	93224
#	115498
#	134323
#	157055
#	177967
#	208870
#	224247
#
# Disc length: 3363 seconds
#
# Revision: 6
# Processed by: cddbd v1.5.1PL0 Copyright (c) Steve Scherf et al.
# Submitted via: CDex 1.50beta9
#
DISCID=9c0d210b
DTITLE=Various Artist - Celestial Journey II
DYEAR=1997
DGENRE=New Age
TTITLE0=Kevin Braheny and Tim Clark - A Perfect Evening for Flying Carpets
TTITLE1=Tangerine Dream - Mother of Rain
TTITLE2=Patrick O'Hearn - Drive
TTITLE3=Christopher Franke - Silence of the Eclipse
TTITLE4=Andreas Vollenweider - Night Fire Dance
TTITLE5=Dik Darnell - Angels of Dawn
TTITLE6=Mars Lasar - Inner Sanctum
TTITLE7=Steve McDonald - Journey of the Warrion Soul
TTITLE8=Constance Demby - The Galactic Chalice
TTITLE9=Harold Budd and Brian Eno - The Silver Ball
TTITLE10=John Serrie - Mystery Road
EXTD=YEAR: 1997
EXTT0=
EXTT1=
EXTT2=
EXTT3=
EXTT4=
EXTT5=
EXTT6=
EXTT7=
EXTT8=
EXTT9=
EXTT10=
PLAYORDER=
